<svg id="visual" viewBox="0 0 900 600" width="900" height="600" xmlns="http://www.w3.org/2000/svg" xmlns:xlink="http://www.w3.org/1999/xlink" version="1.1"><g transform="translate(903.604594768988 17.196093699455005)"><path d="M134.6 -190.3C173.6 -156.9 203.8 -116.5 223.1 -69.5C242.5 -22.6 251.1 30.9 239.4 81.2C227.8 131.5 195.9 178.6 152.6 202.2C109.3 225.8 54.7 225.9 5.3 218.6C-44.1 211.3 -88.2 196.7 -135.7 174.5C-183.3 152.3 -234.3 122.5 -247.9 80.6C-261.5 38.6 -237.8 -15.5 -218.5 -69.9C-199.3 -124.3 -184.6 -179 -148.9 -213.5C-113.2 -247.9 -56.6 -261.9 -4.4 -255.9C47.8 -249.8 95.6 -223.6 134.6 -190.3" fill="#FEBB9E"></path></g></svg>