<svg width="68" height="85" viewBox="0 0 68 85" fill="none" xmlns="http://www.w3.org/2000/svg">
<path d="M29.5 25C24.5 16.5 5.1 23.3 1.5 0.5H67.5V40.75V81C67.5 81 48 86.5 35.5 82.5C23 78.5 12.8989 63.8124 20 56.5C33.8687 42.2188 34.5 33.5 29.5 25Z" fill="#FEBB9E"/>
<path d="M29.5 25C24.5 16.5 5.1 23.3 1.5 0.5H67.5V40.75V81C67.5 81 48 86.5 35.5 82.5C23 78.5 12.8989 63.8124 20 56.5C33.8687 42.2188 34.5 33.5 29.5 25Z" stroke="#FEBB9E"/>
<path d="M29.5 25C24.5 16.5 5.1 23.3 1.5 0.5H67.5V40.75V81C67.5 81 48 86.5 35.5 82.5C23 78.5 12.8989 63.8124 20 56.5C33.8687 42.2188 34.5 33.5 29.5 25Z" stroke="#FEBB9E" stroke-opacity="0.2"/>
</svg>
